<svg xmlns="http://www.w3.org/2000/svg" width="512" height="512" viewBox="0 0 512 512">
  <defs>
    <linearGradient id="skin" x1="0" y1="0" x2="0" y2="1">
      <stop offset="0" stop-color="#b5e34a"/>
      <stop offset="1" stop-color="#3e8d2d"/>
    </linearGradient>
    <filter id="shadow" x="-20%" y="-20%" width="140%" height="150%">
      <feDropShadow dx="0" dy="16" stdDeviation="14" flood-color="#061306" flood-opacity="0.45"/>
    </filter>
  </defs>
  <ellipse cx="256" cy="430" rx="145" ry="30" fill="#071509" opacity="0.4"/>
  <path d="M88 219 L154 184 C150 133 190 94 256 94 C322 94 362 133 358 184 L424 219 L357 251 C349 325 308 374 256 374 C204 374 163 325 155 251 Z" fill="url(#skin)" stroke="#1d4f1b" stroke-width="12" filter="url(#shadow)"/>
  <path d="M93 218 L151 194 L147 247 Z" fill="#6fb93a" stroke="#1d4f1b" stroke-width="8"/>
  <path d="M419 218 L361 194 L365 247 Z" fill="#6fb93a" stroke="#1d4f1b" stroke-width="8"/>
  <path d="M191 80 L224 117 L176 132 Z" fill="#65422b" stroke="#2f1b12" stroke-width="8"/>
  <path d="M321 80 L288 117 L336 132 Z" fill="#65422b" stroke="#2f1b12" stroke-width="8"/>
  <path d="M166 253 C192 229 225 230 243 257 C210 254 190 261 171 280 Z" fill="#10140b"/>
  <path d="M346 253 C320 229 287 230 269 257 C302 254 322 261 341 280 Z" fill="#10140b"/>
  <circle cx="206" cy="260" r="12" fill="#f6ff6b"/>
  <circle cx="306" cy="260" r="12" fill="#f6ff6b"/>
  <path d="M238 296 L256 315 L274 296" fill="none" stroke="#1f391b" stroke-width="10" stroke-linecap="round" stroke-linejoin="round"/>
  <path d="M205 335 C235 360 278 360 309 335" fill="none" stroke="#1a1b12" stroke-width="10" stroke-linecap="round"/>
  <path d="M226 341 L237 365 L248 343" fill="#fff3cf" stroke="#1a1b12" stroke-width="4"/>
  <path d="M284 341 L275 365 L264 343" fill="#fff3cf" stroke="#1a1b12" stroke-width="4"/>
</svg>
